<?xml version="1.0" standalone="no"?>
<!DOCTYPE svg PUBLIC "-//W3C//DTD SVG 20010904//EN"
 "http://www.w3.org/TR/2001/REC-SVG-20010904/DTD/svg10.dtd">
<svg version="1.0" xmlns="http://www.w3.org/2000/svg"
 width="534.000000pt" height="459.000000pt" viewBox="0 0 534.000000 459.000000"
 preserveAspectRatio="xMidYMid meet">

<g transform="translate(0.000000,459.000000) scale(0.100000,-0.100000)"
fill="#000000" stroke="none">
<path d="M1231 4298 c-20 -54 -1004 -2835 -1009 -2851 -4 -16 16 -17 358 -15
l362 3 87 250 87 250 556 3 557 2 19 -52 c10 -29 50 -144 88 -255 l69 -203
364 0 c286 0 362 3 358 13 -3 10 -976 2755 -1009 2850 l-10 27 -434 0 -434 0
-9 -22z m635 -1307 c90 -261 164 -476 164 -478 0 -1 -160 -3 -355 -3 -195 0
-355 4 -355 8 0 9 304 892 337 981 l17 44 14 -39 c7 -22 87 -252 178 -513z"/>
<path d="M3390 3813 l0 -507 65 -460 c36 -254 67 -476 70 -494 l6 -32 192 2
191 3 83 485 82 485 1 513 0 512 -345 0 -345 0 0 -507z"/>
<path d="M3410 1755 l0 -325 325 0 325 0 0 325 0 325 -325 0 -325 0 0 -325z"/>
<path d="M285 613 c-32 -92 -68 -196 -81 -231 l-23 -63 55 3 56 3 17 45 17 45
74 0 74 0 15 -47 15 -48 53 0 c36 0 53 4 53 13 0 6 -31 109 -69 227 l-68 215
-65 3 -65 3 -58 -168z m160 -80 l7 -33 -52 0 c-44 0 -51 2 -46 18 3 9 15 49
27 87 l22 70 17 -55 c10 -30 21 -70 25 -87z"/>
<path d="M1040 550 l0 -230 50 0 50 0 0 230 0 230 -50 0 -50 0 0 -230z"/>
<path d="M2040 589 l0 -191 33 -33 c77 -77 267 -63 312 25 12 23 15 68 15 210
l0 180 -50 0 -50 0 0 -170 c0 -157 -2 -172 -20 -190 -24 -24 -86 -27 -118 -4
-21 15 -22 21 -22 190 l0 174 -50 0 -50 0 0 -191z"/>
<path d="M2890 740 l0 -40 50 0 50 0 0 40 0 40 -50 0 -50 0 0 -40z"/>
<path d="M4440 740 l0 -40 45 0 45 0 0 40 0 40 -45 0 -45 0 0 -40z"/>
<path d="M1250 700 c0 -47 -2 -50 -25 -50 -22 0 -25 -4 -25 -35 0 -31 3 -35
25 -35 l25 0 0 -108 c0 -129 7 -140 94 -149 l56 -6 0 37 c0 28 -4 36 -18 36
-34 0 -42 21 -42 107 l0 83 30 0 c28 0 30 3 30 35 0 32 -2 35 -30 35 -29 0
-30 1 -30 50 l0 50 -45 0 -45 0 0 -50z"/>
<path d="M4650 700 c0 -47 -2 -50 -25 -50 -22 0 -25 -4 -25 -35 0 -31 3 -35
25 -35 l25 0 0 -104 c0 -130 9 -144 93 -153 l57 -6 0 37 c0 29 -4 36 -20 36
-29 0 -40 31 -40 114 l0 76 30 0 c28 0 30 3 30 34 0 30 -3 35 -27 38 -26 3
-28 7 -31 51 l-3 47 -45 0 -44 0 0 -50z"/>
<path d="M730 649 c-32 -13 -59 -48 -60 -76 0 -20 5 -23 35 -23 22 0 43 8 55
20 32 32 100 25 100 -10 0 -15 -13 -21 -57 -30 -96 -19 -101 -21 -128 -46 -37
-34 -35 -95 4 -135 26 -25 37 -29 86 -29 31 0 66 5 78 11 16 9 22 9 25 0 2 -6
24 -11 50 -11 l47 0 -5 132 c-6 148 -14 172 -65 194 -39 16 -128 18 -165 3z
m138 -193 c6 -28 -37 -66 -74 -66 -35 0 -59 21 -51 44 6 15 92 47 112 42 6 -1
12 -11 13 -20z"/>
<path d="M1544 646 c-116 -52 -125 -242 -15 -304 54 -31 146 -31 191 1 48 32
72 69 77 121 7 63 -19 129 -64 163 -43 33 -138 42 -189 19z m134 -80 c36 -35
30 -133 -10 -161 -72 -49 -147 32 -115 125 19 55 86 74 125 36z"/>
<path d="M2620 643 c-17 -12 -25 -13 -28 -5 -2 7 -23 12 -48 12 l-44 0 0 -165
0 -165 45 0 45 0 0 108 c0 122 12 152 59 152 46 0 51 -14 51 -142 l0 -118 50
0 50 0 0 113 c0 131 -11 178 -47 207 -32 25 -99 27 -133 3z"/>
<path d="M3502 643 c-55 -27 -82 -77 -82 -153 0 -75 21 -119 72 -150 40 -24
135 -27 178 -5 28 15 70 60 70 76 0 16 -97 10 -110 -6 -21 -25 -76 -19 -99 11
-12 15 -21 31 -21 35 0 5 52 9 115 9 l115 0 0 43 c0 55 -36 117 -80 139 -44
22 -115 23 -158 1z m114 -61 c6 -4 16 -17 23 -29 12 -23 11 -23 -59 -23 -74 0
-76 2 -42 43 15 17 58 23 78 9z"/>
<path d="M3935 634 c-24 -26 -25 -26 -25 -5 0 18 -6 21 -45 21 l-45 0 0 -165
0 -165 44 0 43 0 5 98 c3 53 10 107 16 119 12 22 68 47 83 37 5 -3 9 15 9 40
0 45 -1 46 -30 46 -21 0 -39 -9 -55 -26z"/>
<path d="M4133 640 c-38 -23 -53 -48 -53 -90 0 -45 36 -76 106 -90 71 -15 94
-26 94 -45 0 -17 -31 -35 -60 -35 -11 0 -32 11 -46 25 -18 18 -36 25 -64 25
-44 0 -47 -7 -25 -50 22 -43 63 -60 140 -60 102 0 145 34 145 115 0 43 -26 70
-79 84 -23 6 -59 16 -82 22 -29 7 -39 15 -37 27 4 23 70 29 91 8 19 -20 97
-22 97 -3 0 21 -29 56 -60 72 -42 22 -128 19 -167 -5z"/>
<path d="M2890 485 l0 -165 50 0 50 0 0 165 0 165 -50 0 -50 0 0 -165z"/>
<path d="M3060 640 c0 -5 25 -79 56 -165 l57 -156 45 3 45 3 53 155 c29 85 54
158 54 163 0 4 -22 7 -50 7 -55 0 -50 10 -84 -139 -8 -34 -17 -65 -19 -67 -2
-2 -17 43 -33 101 l-28 105 -48 0 c-27 0 -48 -4 -48 -10z"/>
<path d="M4440 485 l0 -165 45 0 45 0 0 165 0 165 -45 0 -45 0 0 -165z"/>
<path d="M4860 643 c0 -5 27 -77 60 -161 33 -84 60 -155 60 -157 0 -13 -35
-35 -56 -35 -21 0 -24 -5 -24 -35 l0 -35 49 0 c65 0 79 6 98 44 18 34 133 361
133 377 0 6 -20 9 -47 7 l-48 -3 -27 -99 c-15 -54 -29 -101 -31 -102 -2 -2
-18 43 -37 101 l-32 105 -49 0 c-27 0 -49 -3 -49 -7z"/>
</g>
</svg>
