<?xml version="1.0" standalone="no"?>
<!DOCTYPE svg PUBLIC "-//W3C//DTD SVG 20010904//EN"
 "http://www.w3.org/TR/2001/REC-SVG-20010904/DTD/svg10.dtd">
<svg version="1.0" xmlns="http://www.w3.org/2000/svg"
 width="940.000000pt" height="896.000000pt" viewBox="0 0 940.000000 896.000000"
 preserveAspectRatio="xMidYMid meet">

<g transform="translate(0.000000,896.000000) scale(0.100000,-0.100000)"
fill="#000000" stroke="none">
<path d="M10 6850 l0 -2100 26 -10 c14 -6 80 -24 146 -41 348 -87 662 -119
978 -99 291 18 491 53 927 160 679 167 805 189 1148 197 181 4 260 2 370 -12
222 -27 427 -74 632 -146 45 -16 84 -29 87 -29 3 0 6 941 6 2090 l0 2090 -450
0 -450 0 0 -225 0 -225 -280 0 -280 0 0 225 0 225 -252 -2 -253 -3 -3 -222 -2
-223 -250 0 -250 0 -2 223 -3 222 -252 3 -253 2 0 -225 0 -225 -255 0 -255 0
0 225 0 225 -415 0 -415 0 0 -2100z m2120 1062 l0 -127 -97 -38 c-128 -49
-295 -88 -385 -89 -66 -2 -72 0 -95 27 -22 25 -25 36 -21 92 2 35 1 63 -3 63
-4 0 -36 -14 -71 -30 -36 -17 -109 -42 -164 -56 -84 -22 -115 -25 -209 -22
-94 4 -117 8 -155 29 -46 25 -90 79 -90 111 0 16 4 16 42 -9 38 -26 50 -28
132 -27 123 0 234 29 488 125 43 16 89 29 103 29 28 0 41 -20 30 -47 -4 -10
-8 -34 -8 -53 0 -30 3 -35 25 -38 42 -5 237 65 353 127 61 32 113 59 118 60 4
1 7 -56 7 -127z m663 -274 c-33 -40 -70 -89 -83 -108 -13 -19 -27 -37 -30 -40
-3 -3 -24 -39 -47 -80 -98 -182 -127 -382 -83 -567 31 -128 135 -309 238 -410
l54 -53 319 0 c249 0 319 -3 319 -12 0 -7 -7 -51 -15 -98 -8 -47 -15 -86 -15
-87 0 -1 -29 -4 -64 -8 l-63 -7 -7 -69 c-11 -117 -85 -315 -139 -371 -7 -7
-23 -28 -36 -46 -26 -37 -28 -35 74 -52 175 -30 504 -137 490 -161 -3 -4 -18
-4 -33 1 -135 44 -655 60 -869 26 -190 -29 -378 -79 -553 -146 -427 -165 -601
-209 -841 -217 -169 -6 -289 4 -449 38 -114 25 -134 43 -33 32 108 -13 320 -7
418 11 165 31 389 104 590 193 359 159 436 189 570 225 l110 29 -130 -5 c-220
-9 -423 -57 -755 -180 -169 -63 -204 -70 -235 -50 -51 33 -153 188 -190 290
-10 27 -23 54 -28 61 -5 7 -6 17 -3 22 4 5 2 12 -4 16 -5 3 -10 16 -10 27 0
67 -81 157 -160 178 -35 9 -38 13 -48 63 -6 28 -8 54 -6 57 3 2 127 -12 276
-33 l270 -36 56 -55 c84 -83 208 -139 327 -148 l40 -3 5 155 5 155 45 22 c25
12 48 22 53 23 4 0 7 -79 7 -176 l0 -177 68 6 c78 8 171 37 222 71 19 12 42
25 51 28 29 11 90 96 105 145 30 100 -18 202 -127 273 -81 52 -145 75 -253 90
-112 16 -230 7 -338 -26 -92 -27 -143 -57 -206 -121 -24 -23 -47 -43 -51 -43
-16 0 -145 176 -171 234 -15 34 -35 93 -44 133 -20 90 -21 257 -1 338 19 79
19 81 -6 59 -77 -69 -121 -182 -122 -314 -1 -122 12 -173 100 -386 3 -8 -10
-9 -49 -2 -124 23 -303 -10 -395 -74 -48 -32 -103 -110 -103 -145 0 -24 32
-85 64 -122 28 -32 113 -71 156 -72 73 -1 -9 -19 -118 -25 -281 -16 -472 75
-472 227 0 45 23 90 71 140 79 82 79 82 209 59 62 -12 114 -19 115 -18 2 2
-17 30 -42 63 -53 70 -90 144 -99 198 -4 20 -11 40 -15 43 -12 7 -11 140 0
162 5 9 17 41 26 71 22 71 93 178 161 240 52 48 101 71 152 71 13 0 31 4 40 9
9 5 114 24 232 42 193 30 216 36 235 58 123 146 222 247 275 281 41 27 62 31
220 50 157 19 447 56 725 93 55 8 102 12 104 11 2 -2 -24 -36 -56 -76z m507
-175 c-13 -32 -26 -62 -30 -68 -4 -5 -13 -28 -20 -50 -7 -22 -16 -45 -21 -51
-5 -6 -6 -14 -2 -17 3 -4 0 -13 -7 -22 -7 -9 -10 -18 -7 -22 4 -3 3 -11 -2
-17 -26 -31 -46 -185 -46 -353 0 -95 -2 -173 -5 -173 -3 0 -41 7 -85 16 -137
27 -301 22 -391 -13 -10 -4 -14 2 -14 20 0 14 4 28 9 31 5 3 12 21 15 40 9 46
84 191 149 285 63 92 271 302 387 393 47 36 87 64 89 62 2 -2 -7 -29 -19 -61z"/>
<path d="M6649 8935 c-175 -35 -316 -103 -472 -225 -71 -56 -165 -215 -198
-336 -18 -66 -21 -107 -23 -279 l-1 -201 -35 -58 c-52 -86 -127 -142 -247
-182 -131 -44 -242 -183 -292 -366 -25 -94 -39 -184 -51 -332 -5 -65 -11 -120
-13 -122 -2 -3 -10 23 -17 56 -7 33 -17 63 -21 66 -4 2 -6 11 -2 19 3 9 1 21
-5 28 -10 13 -58 203 -137 542 -25 110 -49 207 -52 215 -4 8 -5 19 -4 24 1 4
-3 14 -9 21 -6 7 -10 17 -9 21 1 5 -1 16 -4 24 -4 8 -38 148 -77 310 -38 162
-77 320 -85 350 -9 30 -18 62 -20 70 -2 8 -4 15 -5 15 0 0 -21 77 -45 170
l-43 170 -1 -2082 c-1 -1146 2 -2083 5 -2083 4 0 59 18 123 39 336 113 627
157 989 149 l212 -5 0 54 c0 56 -17 187 -27 213 -3 8 -5 19 -4 24 1 4 -3 14
-9 21 -6 7 -10 17 -9 21 1 5 0 16 -3 24 -3 8 -20 58 -38 110 -30 88 -79 198
-101 224 -5 6 -39 52 -74 103 -107 152 -246 276 -445 400 -58 36 -96 62 -85
58 11 -4 45 -16 75 -27 81 -29 274 -132 347 -186 36 -26 75 -53 89 -60 56 -30
270 -258 339 -362 38 -58 73 -107 77 -110 27 -20 124 -274 148 -385 7 -33 17
-65 22 -72 5 -7 8 -25 7 -40 -5 -51 10 -62 112 -84 52 -10 249 -57 439 -104
608 -148 809 -179 1165 -178 329 0 643 49 955 146 l45 14 -120 7 c-344 17
-514 28 -645 41 -294 30 -616 87 -842 149 -111 31 -169 51 -358 125 -25 10
-76 36 -114 59 -37 23 -72 42 -77 42 -5 0 -9 4 -9 8 0 5 60 12 133 16 364 18
621 110 709 254 12 21 25 39 29 42 3 3 30 47 59 99 29 52 69 112 88 133 71 79
196 117 387 118 237 2 434 77 563 214 72 78 147 204 178 300 28 91 71 326 59
326 -2 0 -31 -39 -64 -87 -59 -87 -147 -174 -227 -227 -127 -83 -302 -99 -508
-46 -273 70 -403 84 -531 56 -129 -28 -216 -86 -354 -236 -45 -49 -92 -95
-105 -102 -12 -7 -57 -36 -99 -64 -87 -59 -209 -107 -314 -123 -73 -11 -283
-15 -283 -6 0 9 151 207 175 230 12 11 58 70 104 130 46 61 94 119 106 130 12
11 59 70 105 130 45 61 99 128 120 150 20 22 76 92 125 155 49 63 95 120 101
125 7 6 54 64 104 130 51 66 100 127 109 135 9 8 63 75 120 148 57 73 109 139
116 145 16 17 84 101 169 210 37 48 79 100 93 115 14 15 60 73 103 128 44 56
91 115 105 130 15 16 62 75 105 130 44 56 91 115 105 130 15 16 63 76 108 134
44 58 88 112 97 120 10 8 57 67 105 130 49 63 98 124 110 135 26 24 85 100 85
110 0 4 -36 -23 -80 -59 -43 -36 -82 -66 -85 -66 -4 0 -51 -36 -105 -80 -54
-44 -102 -80 -105 -80 -3 0 -51 -36 -105 -80 -54 -44 -102 -80 -105 -80 -3 0
-51 -36 -105 -80 -54 -44 -102 -80 -105 -80 -4 0 -53 -38 -110 -85 -57 -47
-106 -85 -109 -85 -4 0 -54 -37 -111 -82 -57 -46 -152 -119 -209 -163 -58 -44
-155 -119 -215 -167 -60 -49 -112 -88 -116 -88 -3 0 -51 -36 -105 -80 -54 -44
-102 -80 -105 -80 -4 0 -53 -38 -110 -85 -57 -47 -106 -85 -110 -85 -3 0 -51
-36 -105 -80 -54 -44 -101 -80 -105 -80 -3 0 -53 -37 -110 -82 -57 -46 -152
-119 -210 -163 -58 -44 -142 -109 -188 -146 -45 -36 -98 -76 -117 -89 -19 -13
-72 -55 -118 -92 -46 -37 -88 -68 -94 -68 -17 0 -3 282 17 355 9 33 20 65 23
70 4 6 7 12 7 15 2 12 55 109 67 121 7 8 32 39 55 69 23 30 83 97 133 149 152
155 205 242 231 370 19 99 -4 241 -58 359 -14 31 -27 59 -28 62 -1 3 -9 21
-17 40 -58 130 -71 307 -29 409 40 98 177 255 316 364 l48 37 -34 -1 c-19 -1
-64 -7 -100 -14z"/>
<path d="M3095 4534 c-232 -24 -438 -65 -849 -169 -640 -161 -858 -196 -1231
-197 -309 0 -522 26 -832 102 -89 22 -164 40 -168 40 -3 0 -4 -939 -3 -2087
l3 -2088 85 -17 c388 -82 555 -100 965 -105 427 -6 563 5 865 73 125 28 420
103 431 109 18 12 422 107 529 126 160 27 482 37 643 19 207 -22 440 -74 672
-149 l120 -39 3 2087 c2 1961 1 2087 -15 2099 -52 38 -447 147 -643 177 -101
16 -483 28 -575 19z m-1111 -736 c-124 -148 -84 -318 79 -335 64 -7 123 10
200 58 37 23 52 28 56 18 2 -7 20 -30 40 -52 33 -35 42 -39 98 -44 57 -5 90 1
166 32 13 5 17 2 17 -12 0 -44 34 -114 83 -168 32 -36 44 -56 32 -51 -11 4
-69 20 -130 36 -298 76 -566 62 -773 -42 -46 -23 -100 -57 -120 -75 l-37 -33
56 24 c94 41 238 76 363 88 147 14 302 0 449 -42 117 -34 320 -132 403 -196
32 -24 73 -53 89 -64 57 -37 187 -204 239 -308 64 -128 90 -357 57 -507 -15
-69 -67 -209 -84 -228 -7 -6 -32 -41 -56 -77 -62 -90 -138 -178 -180 -206 -20
-14 -67 -49 -106 -79 -38 -30 -75 -55 -81 -55 -16 0 -83 -75 -94 -106 -22 -56
-5 -151 32 -182 14 -11 16 -5 20 48 3 39 11 70 24 87 37 49 45 48 99 -4 58
-55 106 -73 210 -80 131 -9 259 40 315 122 17 25 28 45 23 45 -4 0 -2 5 5 12
15 15 16 94 2 103 -6 4 -8 10 -6 14 9 15 -90 98 -139 116 -84 31 -77 37 35 33
90 -3 114 -7 165 -31 205 -96 269 -318 135 -470 -41 -47 -141 -103 -221 -125
-74 -20 -95 -44 -62 -71 12 -10 45 -21 72 -25 28 -4 51 -11 51 -15 0 -23 -79
-46 -170 -49 -125 -6 -244 13 -320 49 -74 35 -86 36 -100 8 -14 -26 -6 -63 25
-111 l24 -36 -39 -7 c-59 -10 -141 11 -208 54 -64 42 -89 75 -122 164 -35 93
-64 108 -120 60 -67 -56 -102 -196 -66 -265 18 -34 14 -35 -77 -8 -94 26 -144
58 -216 136 -88 96 -108 172 -75 285 13 43 29 66 83 119 79 78 151 117 291
160 162 50 189 61 265 111 76 49 128 105 166 179 13 25 24 47 24 50 1 3 7 19
14 35 17 39 17 182 1 220 -7 17 -14 32 -15 35 -15 62 -133 181 -219 221 -81
38 -186 54 -260 42 -51 -9 -57 -8 -52 6 3 9 18 50 33 91 22 62 27 91 27 170
-1 57 -6 110 -15 132 l-14 38 -46 -64 c-57 -78 -136 -144 -257 -216 -51 -30
-86 -56 -78 -58 22 -5 170 26 213 44 19 8 46 27 59 41 l24 26 0 -42 c0 -23 -6
-55 -14 -70 -18 -35 -126 -136 -169 -158 -47 -24 -139 -97 -173 -136 -54 -64
-63 -76 -86 -119 -12 -24 -22 -45 -23 -48 0 -3 -3 -9 -7 -15 -3 -5 -12 -38
-18 -73 -14 -69 -1 -192 23 -221 7 -8 11 -17 10 -20 0 -3 5 -21 13 -40 8 -19
12 -36 10 -39 -10 -9 -96 49 -120 81 -26 34 -106 188 -106 204 0 16 -69 90
-89 96 -33 8 -79 -22 -87 -56 -5 -18 -7 -127 -5 -244 3 -242 -4 -295 -56 -386
-81 -145 -182 -196 -303 -153 -40 14 -80 67 -80 105 0 33 32 86 61 102 25 13
103 16 137 5 42 -14 132 98 132 165 0 14 -5 12 -30 -11 -38 -35 -108 -55 -191
-53 -86 2 -145 32 -222 111 -102 107 -148 249 -149 457 -1 264 57 458 191 640
33 45 36 54 30 90 -20 106 1 252 52 364 16 36 33 68 37 71 4 3 31 37 59 75 79
107 226 235 343 298 25 13 74 40 110 60 90 50 395 174 433 176 5 1 -4 -14 -19
-31z m-435 -1914 c8 -25 41 -86 73 -136 126 -189 182 -353 159 -466 -19 -96
-87 -171 -168 -186 -40 -7 -40 -4 -8 38 29 38 70 126 67 143 -1 6 2 14 8 18
12 8 13 87 1 101 -4 5 -14 31 -20 58 -7 26 -39 110 -73 185 -53 119 -61 146
-66 214 -5 87 7 101 27 31z"/>
<path d="M1238 1983 c-9 -10 -13 -23 -11 -30 2 -6 -1 -14 -6 -18 -14 -8 -14
-52 0 -60 6 -4 8 -13 5 -21 -5 -14 45 -74 63 -74 8 0 10 11 6 33 -5 26 -2 37
19 56 55 52 38 131 -28 131 -19 0 -39 -7 -48 -17z"/>
<path d="M5510 4526 c-207 -27 -374 -67 -597 -143 l-133 -46 0 -2093 0 -2093
118 39 c384 125 639 166 982 157 269 -7 420 -31 755 -122 72 -20 180 -49 240
-65 442 -121 657 -150 1100 -150 423 0 680 29 1118 127 l67 15 0 2089 c0 1149
-2 2089 -5 2089 -2 0 -63 -16 -134 -35 -561 -152 -1064 -169 -1636 -54 -149
30 -240 52 -620 148 -445 114 -618 141 -925 146 -152 3 -259 0 -330 -9z m3175
-681 c72 -45 134 -129 142 -192 8 -74 -2 -112 -44 -161 -50 -59 -82 -76 -48
-26 35 51 41 96 20 149 -22 59 -61 86 -135 92 -80 8 -135 -14 -193 -76 -38
-41 -46 -56 -52 -102 -10 -87 8 -140 90 -264 41 -61 77 -119 81 -128 5 -15 10
-13 40 13 89 78 277 76 344 -5 9 -11 5 -15 -27 -20 -21 -3 -63 -15 -93 -27
-111 -42 -123 -69 -130 -293 -5 -158 -8 -174 -32 -220 -69 -132 -191 -215
-328 -222 -77 -4 -179 19 -187 43 -2 6 18 21 44 32 83 36 143 117 143 195 0
19 -8 58 -19 88 -34 101 -82 171 -188 276 -157 155 -216 260 -229 405 -13 145
35 279 130 365 29 26 72 56 95 65 l41 17 -44 -44 c-44 -45 -86 -119 -86 -154
0 -11 -4 -23 -10 -26 -44 -27 58 -307 137 -377 18 -17 17 -12 -6 55 -21 60
-25 90 -26 187 0 104 3 120 27 172 32 69 98 142 152 170 84 43 108 48 227 45
109 -2 118 -4 164 -32z m-2100 -136 c32 -11 73 -30 90 -42 47 -33 158 -137
178 -168 l18 -27 -58 -7 c-120 -14 -149 -40 -56 -50 32 -3 81 -11 110 -16 50
-10 53 -12 76 -62 13 -29 27 -65 31 -82 4 -16 9 -38 12 -47 5 -16 -4 -18 -88
-18 -105 0 -138 -6 -138 -26 0 -8 18 -15 48 -19 60 -8 183 -43 200 -58 8 -6
12 -23 10 -39 -3 -16 -1 -31 4 -34 4 -3 8 -28 8 -55 l0 -50 -99 7 c-73 5 -100
3 -106 -6 -10 -17 6 -30 62 -50 109 -38 149 -80 124 -128 -15 -27 -32 -127
-26 -144 9 -22 43 -34 150 -52 153 -26 277 -36 447 -36 181 0 274 -15 351 -55
63 -32 146 -96 147 -112 0 -7 4 -13 10 -13 13 0 58 -73 81 -129 30 -79 32 -86
30 -103 -1 -9 3 -19 9 -23 12 -8 13 -149 1 -173 -5 -9 -15 -39 -22 -67 -7 -28
-37 -85 -66 -128 -90 -132 -119 -207 -100 -257 3 -8 11 -33 17 -55 25 -83 92
-166 169 -207 42 -23 40 -48 -13 -127 -24 -37 -74 -120 -111 -186 -173 -307
-171 -305 -208 -305 -34 0 -60 -34 -61 -78 l-1 -37 -157 -3 c-175 -3 -176 -3
-134 59 24 35 62 64 148 113 55 31 100 84 152 178 21 37 42 71 48 74 19 12 68
129 68 164 0 49 -44 117 -115 180 -181 159 -236 225 -316 377 -48 91 -59 97
-156 77 -222 -45 -290 -54 -427 -54 -194 0 -336 25 -477 84 l-36 15 15 76 c11
58 12 81 4 100 -16 34 -23 32 -50 -16 -13 -22 -39 -58 -59 -80 -42 -47 -43
-47 -254 -18 -85 11 -165 21 -178 21 -31 1 -54 -30 -47 -63 5 -28 111 -210
129 -221 6 -3 8 -26 4 -57 -5 -40 -2 -55 12 -73 19 -22 19 -22 53 -4 52 28 81
17 106 -41 22 -52 42 -147 42 -200 0 -27 -4 -33 -20 -33 -39 0 -105 42 -170
109 -36 36 -85 76 -110 88 -68 33 -89 61 -111 148 -24 99 -83 246 -121 308
-36 57 -33 92 12 154 25 33 38 42 85 52 83 19 250 77 248 87 -1 5 -11 35 -23
66 -25 71 -27 194 -4 261 9 26 20 47 25 47 5 0 9 5 9 10 0 6 15 27 33 46 17
20 32 44 33 53 1 9 4 23 7 31 3 8 13 40 23 70 22 72 67 172 107 238 26 44 38
54 72 63 67 17 91 29 123 62 36 38 75 105 67 117 -3 5 -1 11 5 15 20 13 10
108 -18 168 l-27 58 -1 -80 c0 -53 -5 -85 -15 -97 -8 -9 -13 -19 -12 -20 8
-12 -34 -73 -65 -95 -47 -34 -101 -49 -178 -49 -50 0 -64 -4 -80 -21 -10 -12
-43 -39 -71 -60 -36 -27 -55 -49 -61 -71 -12 -46 -30 -54 -96 -39 -31 7 -56
17 -56 22 0 22 50 59 80 59 33 0 80 38 80 64 0 21 -34 38 -58 28 -10 -4 -43
-35 -71 -70 -61 -73 -81 -77 -96 -15 -6 22 -18 50 -28 61 -13 14 -17 28 -12
44 8 24 152 208 164 208 3 0 18 16 34 35 23 29 26 38 16 53 -7 11 -9 30 -6 43
7 26 139 182 160 188 21 6 67 54 67 70 0 22 -37 82 -63 103 l-22 18 27 0 c50
0 137 -41 204 -96 37 -29 70 -51 75 -48 18 11 8 43 -26 88 -34 45 -34 46 -12
50 12 3 31 7 42 10 41 10 172 -4 230 -25z m-939 -1329 c5 -5 59 -35 119 -66
132 -67 135 -69 135 -103 0 -15 6 -51 14 -81 8 -30 13 -56 12 -57 -2 -2 -24
-7 -49 -12 -53 -10 -56 -8 -160 81 -50 43 -76 58 -98 58 -51 0 -71 -32 -118
-196 -40 -139 -46 -152 -75 -169 -57 -34 -60 -57 -12 -86 43 -25 48 -39 36
-93 -9 -42 -66 -147 -96 -176 -19 -19 -28 -7 -50 70 -8 30 -18 62 -21 70 -4 8
-5 19 -4 24 1 4 -3 13 -8 20 -5 6 -11 59 -13 118 -2 88 0 109 14 124 17 20
199 374 192 374 -2 0 3 11 12 25 25 39 85 71 155 84 3 1 9 -3 15 -9z m2049
-1185 c77 -87 81 -72 -35 -146 -36 -23 -109 -71 -162 -105 -54 -35 -100 -64
-104 -64 -3 0 -25 -13 -49 -30 -46 -32 -74 -37 -106 -19 -53 28 -76 -21 -39
-86 l20 -35 -53 -39 c-66 -49 -129 -81 -161 -81 -23 0 -25 3 -19 33 15 80 56
187 95 247 39 59 51 69 123 105 163 80 301 158 333 189 19 17 42 48 53 69 11
20 23 37 28 37 5 0 39 -34 76 -75z"/>
<path d="M6032 3339 c-35 -34 -51 -57 -47 -67 5 -13 8 -12 21 6 11 17 25 22
58 22 32 0 48 6 64 23 27 29 28 43 3 57 -32 17 -44 12 -99 -41z"/>
</g>
</svg>
